<svg width="21" height="21" viewBox="0 0 21 21" fill="none" xmlns="http://www.w3.org/2000/svg">
<path fill-rule="evenodd" clip-rule="evenodd" d="M13.113 4.39255C11.3343 4.39255 9.8567 5.68501 9.56946 7.38203C9.53294 7.59779 9.32843 7.7431 9.11267 7.70658C8.8969 7.67006 8.7516 7.46554 8.78812 7.24978C9.1388 5.17793 10.9412 3.6001 13.113 3.6001C15.5356 3.6001 17.4995 5.56403 17.4995 7.98665C17.4995 10.1584 15.9217 11.9608 13.8499 12.3115C13.6341 12.348 13.4296 12.2027 13.3931 11.987C13.3565 11.7712 13.5018 11.5667 13.7176 11.5302C15.4146 11.2429 16.7071 9.76534 16.7071 7.98665C16.7071 6.00169 15.098 4.39255 13.113 4.39255Z" fill="#014C46" stroke="#014C46" stroke-width="0.5" stroke-linecap="round" stroke-linejoin="round"/>
<path fill-rule="evenodd" clip-rule="evenodd" d="M7.85849 9.67575C5.88902 9.67575 4.29245 11.2723 4.29245 13.2418C4.29245 15.2113 5.88902 16.8078 7.85849 16.8078C9.82796 16.8078 11.4245 15.2113 11.4245 13.2418C11.4245 11.2723 9.82796 9.67575 7.85849 9.67575ZM3.5 13.2418C3.5 10.8347 5.45136 8.8833 7.85849 8.8833C10.2656 8.8833 12.217 10.8347 12.217 13.2418C12.217 15.6489 10.2656 17.6003 7.85849 17.6003C5.45136 17.6003 3.5 15.6489 3.5 13.2418Z" fill="#014C46" stroke="#014C46" stroke-width="0.5" stroke-linecap="round" stroke-linejoin="round"/>
<path fill-rule="evenodd" clip-rule="evenodd" d="M7.18581 5.11586C5.53649 5.4298 4.29245 6.87702 4.29245 8.61874C4.29245 8.83757 4.11506 9.01497 3.89623 9.01497C3.6774 9.01497 3.5 8.83757 3.5 8.61874C3.5 6.20935 5.44909 4.26025 7.85849 4.26025C7.99581 4.26025 8.12335 4.33136 8.19554 4.44817C8.26774 4.56499 8.2743 4.71085 8.21289 4.83368L7.64685 5.96575C7.54898 6.16148 7.31098 6.24082 7.11525 6.14295C6.91953 6.04509 6.84019 5.80709 6.93806 5.61136L7.18581 5.11586Z" fill="#014C46" stroke="#014C46" stroke-width="0.5" stroke-linecap="round" stroke-linejoin="round"/>
<path fill-rule="evenodd" clip-rule="evenodd" d="M13.8137 16.0838C15.463 15.7699 16.707 14.3227 16.707 12.581C16.707 12.3621 16.8844 12.1847 17.1033 12.1847C17.3221 12.1847 17.4995 12.3621 17.4995 12.581C17.4995 14.9904 15.5504 16.9395 13.141 16.9395C13.0037 16.9395 12.8761 16.8683 12.8039 16.7515C12.7317 16.6347 12.7252 16.4889 12.7866 16.366L13.3526 15.234C13.4505 15.0382 13.6885 14.9589 13.8842 15.0568C14.08 15.1546 14.1593 15.3926 14.0614 15.5883L13.8137 16.0838Z" fill="#014C46" stroke="#014C46" stroke-width="0.5" stroke-linecap="round" stroke-linejoin="round"/>
</svg>
