<svg width="21" height="21" viewBox="0 0 21 21" fill="none" xmlns="http://www.w3.org/2000/svg">
<path fill-rule="evenodd" clip-rule="evenodd" d="M10.4341 6.57758C9.22954 6.57758 8.25374 7.55297 8.25374 8.75536C8.25374 9.95774 9.22954 10.9331 10.4341 10.9331C11.6386 10.9331 12.6144 9.95774 12.6144 8.75536C12.6144 7.55297 11.6386 6.57758 10.4341 6.57758ZM8.66086 11.1212C7.94148 10.5822 7.47596 9.72319 7.47596 8.75536C7.47596 7.12268 8.80072 5.7998 10.4341 5.7998C12.0675 5.7998 13.3922 7.12268 13.3922 8.75536C13.3922 9.73587 12.9144 10.6046 12.1789 11.1423C12.9166 11.3356 13.4224 11.6624 13.7498 12.1288C14.013 12.5037 14.1336 12.9334 14.1917 13.3715C14.2487 13.8007 14.2486 14.2677 14.2486 14.7288V14.7442C14.2486 14.959 14.0745 15.1331 13.8597 15.1331C13.645 15.1331 13.4709 14.959 13.4709 14.7442C13.4709 14.2653 13.4702 13.847 13.4207 13.4737C13.3718 13.1046 13.2783 12.8108 13.1132 12.5757C12.7962 12.1241 12.1073 11.7479 10.4299 11.7109C8.75677 11.7115 8.0721 12.0891 7.75651 12.5455C7.59071 12.7853 7.49672 13.0865 7.44756 13.4626C7.39795 13.8421 7.39732 14.2655 7.39732 14.7442C7.39732 14.959 7.22321 15.1331 7.00843 15.1331C6.79365 15.1331 6.61954 14.959 6.61954 14.7442V14.7293C6.61954 14.2677 6.61953 13.7964 6.67635 13.3617C6.73424 12.9189 6.85435 12.4827 7.11677 12.1032C7.44029 11.6353 7.93816 11.3084 8.66086 11.1212ZM4.13448 10.5781C4.13448 9.40588 4.96534 8.40367 6.23254 8.40367C6.44732 8.40367 6.62143 8.57778 6.62143 8.79256C6.62143 9.00733 6.44732 9.18144 6.23254 9.18144C5.45014 9.18144 4.91226 9.77802 4.91226 10.5781C4.91226 11.0128 5.02078 11.3667 5.20344 11.6024C5.37604 11.8251 5.63827 11.9747 6.03733 11.9747C6.25052 11.9747 6.42397 12.1463 6.4262 12.3595C6.42843 12.5727 6.25861 12.7479 6.04546 12.7524C4.82387 12.7779 4.50221 13.0438 4.38727 13.2617C4.31788 13.3932 4.28511 13.5718 4.27891 13.834C4.27587 13.9629 4.2792 14.101 4.28373 14.2552C4.2842 14.2713 4.28469 14.2877 4.28518 14.3042C4.28929 14.4421 4.29374 14.5912 4.29374 14.7442C4.29374 14.959 4.11963 15.1331 3.90485 15.1331C3.69007 15.1331 3.51596 14.959 3.51596 14.7442C3.51596 14.6035 3.51188 14.4663 3.50774 14.3271C3.50725 14.3108 3.50676 14.2944 3.50628 14.278C3.50179 14.1248 3.49776 13.9676 3.50135 13.8157C3.50842 13.5163 3.54488 13.1916 3.69934 12.8988C3.88491 12.5471 4.19852 12.3084 4.65685 12.1616C4.63338 12.1348 4.61064 12.1072 4.58866 12.0788C4.27055 11.6683 4.13448 11.1294 4.13448 10.5781ZM14.3785 8.79256C14.3785 8.57778 14.5526 8.40367 14.7674 8.40367C16.0346 8.40367 16.8655 9.40588 16.8655 10.5781C16.8655 11.1294 16.7294 11.6683 16.4112 12.0788C16.3892 12.1072 16.3665 12.1348 16.343 12.1616C16.8013 12.3084 17.115 12.5471 17.3005 12.8988C17.455 13.1916 17.4915 13.5163 17.4986 13.8157C17.5022 13.9676 17.4982 14.1248 17.4937 14.278C17.4932 14.2945 17.4927 14.3109 17.4922 14.3273C17.4881 14.4664 17.484 14.6036 17.484 14.7442C17.484 14.959 17.3099 15.1331 17.0951 15.1331C16.8803 15.1331 16.7062 14.959 16.7062 14.7442C16.7062 14.5912 16.7107 14.4421 16.7148 14.3043C16.7153 14.2878 16.7157 14.2714 16.7162 14.2552C16.7207 14.101 16.7241 13.9629 16.721 13.8341C16.7148 13.5718 16.682 13.3933 16.6126 13.2617C16.4977 13.0438 16.176 12.7779 14.9544 12.7524C14.7412 12.7479 14.5714 12.5727 14.5736 12.3595C14.5759 12.1463 14.7493 11.9747 14.9625 11.9747C15.3616 11.9747 15.6238 11.8251 15.7965 11.6024C15.9792 11.3666 16.0877 11.0128 16.0877 10.5781C16.0877 9.77803 15.5498 9.18144 14.7674 9.18144C14.5526 9.18144 14.3785 9.00733 14.3785 8.79256Z" fill="white" stroke="white" stroke-width="0.5"/>
</svg>
