<svg width="21" height="20" viewBox="0 0 21 20" fill="none" xmlns="http://www.w3.org/2000/svg">
<path d="M12.2414 11.8678L12.1368 11.3789H12.1368L12.2414 11.8678ZM11.5569 11.1834L12.0459 11.2879L11.5569 11.1834ZM12.0554 9.73844L11.7018 9.38489H11.7018L12.0554 9.73844ZM13.6863 11.3694L14.0399 11.7229L13.6863 11.3694ZM15.909 8.24011L16.342 7.99011V7.99011L15.909 8.24011ZM15.909 9.10506L16.342 9.35506L15.909 9.10506ZM15.1846 7.51578L15.4346 7.08277V7.08277L15.1846 7.51578ZM13.9367 7.85711L14.2902 8.21066V8.21066L13.9367 7.85711ZM14.3197 7.51578L14.0697 7.08277V7.08277L14.3197 7.51578ZM15.2141 9.13451L13.3328 11.0158L14.0399 11.7229L15.9212 9.84162L15.2141 9.13451ZM12.4089 10.092L14.2902 8.21066L13.5831 7.50355L11.7018 9.38489L12.4089 10.092ZM12.1368 11.3789C12.0367 11.4003 11.9581 11.4171 11.8907 11.4296C11.8227 11.4423 11.7807 11.4477 11.7543 11.4494C11.727 11.4511 11.7377 11.4472 11.7676 11.4549C11.8059 11.4648 11.8543 11.4881 11.8955 11.5293L11.1884 12.2364C11.3947 12.4427 11.6511 12.458 11.8178 12.4474C11.9755 12.4373 12.1659 12.3953 12.3459 12.3568L12.1368 11.3789ZM11.068 11.0788C11.0295 11.2588 10.9874 11.4492 10.9774 11.607C10.9668 11.7737 10.982 12.0301 11.1884 12.2364L11.8955 11.5293C11.9366 11.5705 11.96 11.6188 11.9698 11.6571C11.9776 11.6871 11.9736 11.6978 11.9754 11.6704C11.977 11.6441 11.9825 11.6021 11.9952 11.534C12.0077 11.4667 12.0245 11.388 12.0459 11.2879L11.068 11.0788ZM15.2141 8.21066C15.4264 8.42302 15.4602 8.46287 15.476 8.49011L16.342 7.99011C16.2438 7.82012 16.088 7.67038 15.9212 7.50355L15.2141 8.21066ZM15.9212 9.84162C16.088 9.67478 16.2438 9.52505 16.342 9.35506L15.476 8.85506C15.4602 8.8823 15.4264 8.92215 15.2141 9.13451L15.9212 9.84162ZM15.476 8.49011C15.5412 8.60303 15.5412 8.74214 15.476 8.85506L16.342 9.35506C16.5858 8.93274 16.5858 8.41243 16.342 7.99011L15.476 8.49011ZM15.9212 7.50355C15.7544 7.33672 15.6046 7.18092 15.4346 7.08277L14.9346 7.9488C14.9619 7.96452 15.0017 7.99831 15.2141 8.21066L15.9212 7.50355ZM14.2902 8.21066C14.5026 7.99831 14.5425 7.96452 14.5697 7.9488L14.0697 7.08277C13.8997 7.18092 13.75 7.33672 13.5831 7.50355L14.2902 8.21066ZM15.4346 7.08277C15.0123 6.83895 14.492 6.83895 14.0697 7.08277L14.5697 7.9488C14.6826 7.8836 14.8217 7.8836 14.9346 7.9488L15.4346 7.08277ZM13.3328 11.0158C13.2348 11.1138 13.0972 11.1813 12.8874 11.2349C12.7822 11.2617 12.6693 11.2827 12.5409 11.3048C12.4183 11.326 12.2748 11.3494 12.1368 11.3789L12.3459 12.3568C12.4589 12.3326 12.5744 12.3139 12.7111 12.2902C12.8419 12.2676 12.9884 12.2412 13.1348 12.2038C13.428 12.1289 13.762 12.0008 14.0399 11.7229L13.3328 11.0158ZM12.0459 11.2879C12.0754 11.15 12.0987 11.0064 12.1199 10.8839C12.1421 10.7554 12.163 10.6425 12.1899 10.5374C12.2435 10.3275 12.3109 10.19 12.4089 10.092L11.7018 9.38489C11.424 9.66274 11.2958 9.99677 11.221 10.29C11.1836 10.4364 11.1571 10.5828 11.1345 10.7136C11.1109 10.8503 11.0921 10.9659 11.068 11.0788L12.0459 11.2879Z" fill="#014C46"/>
<path d="M11.0428 13.3719C11.0161 13.5444 10.9919 13.6838 10.9711 13.7951C10.8409 14.4899 9.85576 14.9078 9.32844 15.2808C9.01452 15.5028 8.6336 15.2385 8.59292 14.8949C8.51537 14.2399 8.3693 12.9091 8.20986 10.9612C8.19554 10.7863 8.11066 10.6283 7.98133 10.5316C6.56602 9.47344 5.55742 8.30952 5.0067 7.65518C4.83622 7.45262 4.78036 7.30439 4.74678 7.04328C4.63177 6.14921 4.57426 5.70217 4.83643 5.41358C5.09859 5.125 5.5622 5.125 6.48942 5.125H13.0479C13.9751 5.125 14.4387 5.125 14.7009 5.41358C14.828 5.55353 14.88 5.73074 14.8866 5.97813" stroke="#014C46" stroke-linecap="round" stroke-linejoin="round"/>
</svg>
