<svg width="21" height="21" viewBox="0 0 21 21" fill="none" xmlns="http://www.w3.org/2000/svg">
<path fill-rule="evenodd" clip-rule="evenodd" d="M3.5 2.65475C3.5 2.40371 3.70351 2.2002 3.95455 2.2002L4.60115 2.2002C5.45955 2.2002 6.18206 2.81459 6.38034 3.65178L6.38224 3.65979L6.74277 5.47239L15.6292 5.47239C15.9781 5.47234 16.295 5.4723 16.5471 5.51456C16.8307 5.56208 17.1099 5.67484 17.3039 5.95651C17.4878 6.22372 17.5135 6.52627 17.4944 6.8187C17.4762 7.09855 17.4101 7.44518 17.3324 7.8523L17.327 7.88055C17.0466 9.35061 16.7747 10.7086 16.1411 11.6847C15.8144 12.188 15.3884 12.5978 14.8179 12.8773C14.2519 13.1545 13.57 13.2907 12.748 13.2907H8.38239C8.37165 13.2915 8.36081 13.2919 8.34988 13.2919H8.06641C7.45588 13.2919 6.8906 13.8165 6.82619 14.5646L9.41138 14.5646C9.42972 14.5639 9.44816 14.5636 9.46669 14.5636C9.48523 14.5636 9.50366 14.5639 9.522 14.5646H14.2334C14.2517 14.5639 14.2701 14.5636 14.2887 14.5636C15.1333 14.5636 15.7767 15.279 15.7767 16.1091C15.7767 16.9391 15.1333 17.6545 14.2887 17.6545C13.444 17.6545 12.8006 16.9391 12.8006 16.1091C12.8006 15.885 12.8475 15.6693 12.9326 15.4737H10.8228C10.9079 15.6693 10.9548 15.885 10.9548 16.1091C10.9548 16.9391 10.3114 17.6545 9.46669 17.6545C8.62201 17.6545 7.97863 16.9391 7.97863 16.1091C7.97863 15.885 8.02551 15.6693 8.11058 15.4737L6.64902 15.4737C6.20179 15.4737 5.91099 15.0891 5.91099 14.7075C5.91099 13.7695 6.43852 12.9227 7.2264 12.5641L5.9358 6.07546C5.92263 6.03734 5.91439 5.99692 5.91184 5.95497L5.49395 3.85398C5.38321 3.40029 5.00523 3.1093 4.60115 3.1093H3.95455C3.70351 3.1093 3.5 2.90579 3.5 2.65475ZM14.2564 15.4737C13.9716 15.4918 13.7097 15.7478 13.7097 16.1091C13.7097 16.484 13.9918 16.7454 14.2887 16.7454C14.5856 16.7454 14.8676 16.484 14.8676 16.1091C14.8676 15.7436 14.5997 15.486 14.3112 15.4732C14.3039 15.4735 14.2965 15.4737 14.2891 15.4737H14.2564ZM10.0456 16.1091C10.0456 15.7478 9.78372 15.4918 9.49898 15.4737H9.4344C9.14966 15.4918 8.88773 15.7478 8.88773 16.1091C8.88773 16.484 9.16979 16.7454 9.46669 16.7454C9.7636 16.7454 10.0456 16.484 10.0456 16.1091ZM8.11702 12.3816L6.92359 6.3815L15.5941 6.3815C15.9898 6.3815 16.2288 6.383 16.3969 6.41116C16.5328 6.43394 16.5494 6.46251 16.5542 6.47067L16.555 6.47203C16.5689 6.49214 16.601 6.54889 16.5873 6.75956C16.5731 6.97636 16.5185 7.26706 16.434 7.71024C16.144 9.23061 15.8957 10.393 15.3786 11.1897C15.1299 11.5727 14.8229 11.8625 14.4179 12.0609C14.0083 12.2615 13.4719 12.3816 12.748 12.3816H8.11702Z" fill="white"/>
</svg>
