<svg width="21" height="20" viewBox="0 0 21 20" fill="none" xmlns="http://www.w3.org/2000/svg">
<path fill-rule="evenodd" clip-rule="evenodd" d="M7.29499 6.20908C7.70412 5.69932 8.27492 5.55012 8.77652 5.75844L9.58231 6.09311C9.56968 6.10733 9.55714 6.12147 9.54466 6.13554L9.51027 6.17429L8.54553 7.2604C8.03951 7.83007 8.03951 8.73916 8.54553 9.30883C8.99634 9.81635 9.72354 9.90411 10.2674 9.49592C10.3482 9.43528 10.4294 9.36708 10.5057 9.30245L10.539 9.27416C10.6053 9.21786 10.6687 9.16408 10.7332 9.11252C10.8878 8.98895 11.0151 8.90696 11.1241 8.87163C11.206 8.8451 11.2549 8.85783 11.3142 8.89794C11.395 8.95254 11.4782 9.05043 11.5884 9.19927L13.1438 11.3005C13.2881 11.4955 13.4171 11.6698 13.5358 11.8244L12.546 12.7813C12.0054 13.3039 11.6204 13.6754 11.2869 13.9294C10.9605 14.1781 10.7116 14.2917 10.451 14.3228C10.424 14.326 10.397 14.3286 10.3698 14.3306C10.1076 14.3495 9.83983 14.2852 9.46859 14.1029C9.08962 13.9167 8.6364 13.6253 8.00039 13.2154L7.9566 13.1872C7.35521 12.7995 6.99687 12.5685 6.58876 12.4445C6.56895 12.4385 6.54908 12.4327 6.52914 12.4271C6.11896 12.3115 5.68923 12.3116 4.96629 12.3116H4.96629L4.91379 12.3116H3.83333C3.64924 12.3116 3.5 12.4609 3.5 12.645C3.5 12.8291 3.64924 12.9783 3.83333 12.9783H4.91379C5.70495 12.9783 6.03742 12.9812 6.34835 13.0688C6.36395 13.0732 6.37951 13.0777 6.39501 13.0824C6.70344 13.1761 6.98088 13.3514 7.63923 13.7757L7.65693 13.7871C8.2713 14.1831 8.75686 14.496 9.17472 14.7013C9.60433 14.9122 9.99414 15.026 10.4177 14.9955C10.4553 14.9928 10.4928 14.9892 10.5301 14.9848C10.952 14.9343 11.3118 14.7486 11.6909 14.4597C12.0593 14.1791 12.4722 13.7799 12.9941 13.2754L12.9941 13.2754L13.9647 12.3371C14.1322 12.5118 14.3019 12.6506 14.5011 12.7556C14.9674 13.0015 15.4949 13.0013 16.3096 13.001L16.394 13.001H17.166C17.3501 13.001 17.4993 12.8518 17.4993 12.6677C17.4993 12.4836 17.3501 12.3344 17.166 12.3344H16.394C15.4636 12.3344 15.1146 12.3255 14.812 12.1659C14.6653 12.0886 14.5266 11.9723 14.3486 11.7692C14.1672 11.5622 13.9613 11.2844 13.671 10.8923L12.1242 8.80263C12.018 8.65919 11.8746 8.47203 11.6875 8.34558C11.4789 8.20463 11.2185 8.14028 10.9187 8.23741C10.6885 8.31197 10.4827 8.45935 10.317 8.5917C10.2441 8.65001 10.1722 8.71099 10.1064 8.76696L10.0746 8.79394C9.99792 8.85891 9.93035 8.91534 9.86722 8.96272C9.61107 9.15497 9.27302 9.12397 9.04396 8.86609C8.76226 8.54896 8.76226 8.02026 9.04395 7.70313L10.0087 6.61703C10.3965 6.18042 10.6867 5.86282 11.1103 5.74645C11.5159 5.63503 12.0121 5.66544 12.513 5.69613L12.5515 5.69849C12.9076 5.72025 13.2533 5.87844 13.5294 6.15728C14.0511 6.68418 14.6361 7.15692 15.4881 7.15692H17.166C17.3501 7.15692 17.4993 7.00768 17.4993 6.82358C17.4993 6.63949 17.3501 6.49025 17.166 6.49025H15.4881C14.9191 6.49025 14.5008 6.19078 14.0031 5.6882C13.6189 5.30022 13.1218 5.06543 12.5922 5.03307L12.513 5.02816C12.0468 4.99908 11.4498 4.96183 10.9337 5.1036C10.5868 5.1989 10.3061 5.38339 10.0649 5.59649C10.0357 5.56834 10.0009 5.54507 9.96119 5.52859L9.03222 5.14277C8.22101 4.80585 7.34444 5.08237 6.77507 5.7918C6.48648 6.15138 6.11279 6.33375 5.74335 6.33375H3.83333C3.64924 6.33375 3.5 6.48298 3.5 6.66708C3.5 6.85117 3.64924 7.00041 3.83333 7.00041H5.74335C6.34286 7.00041 6.89843 6.70319 7.29499 6.20908Z" fill="white"/>
<path d="M8.77652 5.75844L8.87241 5.52757L8.77652 5.75844ZM7.29499 6.20908L7.48996 6.36556H7.48996L7.29499 6.20908ZM9.58231 6.09311L9.76921 6.25916L10.0023 5.99683L9.6782 5.86223L9.58231 6.09311ZM9.54466 6.13554L9.73165 6.30147L9.73169 6.30143L9.54466 6.13554ZM9.51027 6.17429L9.69718 6.34032L9.69726 6.34023L9.51027 6.17429ZM8.54553 7.2604L8.73244 7.42642L8.54553 7.2604ZM8.54553 9.30883L8.73244 9.1428V9.1428L8.54553 9.30883ZM10.2674 9.49592L10.4175 9.69587L10.4175 9.69587L10.2674 9.49592ZM10.5057 9.30245L10.6674 9.49314L10.6674 9.49306L10.5057 9.30245ZM10.539 9.27416L10.7008 9.46477L10.7008 9.46473L10.539 9.27416ZM10.7332 9.11252L10.5771 8.91721H10.5771L10.7332 9.11252ZM11.1241 8.87163L11.0471 8.6338L11.1241 8.87163ZM11.3142 8.89794L11.4542 8.6908L11.4542 8.6908L11.3142 8.89794ZM11.5884 9.19927L11.3874 9.34801L11.3874 9.34801L11.5884 9.19927ZM13.1438 11.3005L13.3447 11.1518L13.3447 11.1518L13.1438 11.3005ZM13.5358 11.8244L13.7096 12.0041L13.87 11.8491L13.7341 11.6721L13.5358 11.8244ZM12.546 12.7813L12.7198 12.961V12.961L12.546 12.7813ZM11.2869 13.9294L11.1354 13.7306L11.2869 13.9294ZM10.451 14.3228L10.4807 14.571L10.4807 14.571L10.451 14.3228ZM10.3698 14.3306L10.3878 14.5799H10.3878L10.3698 14.3306ZM9.46859 14.1029L9.57879 13.8785L9.46859 14.1029ZM8.00039 13.2154L7.86494 13.4255L7.86495 13.4255L8.00039 13.2154ZM7.9566 13.1872L7.82115 13.3973L7.82116 13.3973L7.9566 13.1872ZM6.58876 12.4445L6.66141 12.2053H6.66141L6.58876 12.4445ZM6.52914 12.4271L6.46134 12.6677L6.46135 12.6677L6.52914 12.4271ZM4.96629 12.3116V12.5616H4.96631L4.96629 12.3116ZM4.96629 12.3116V12.0616H4.96628L4.96629 12.3116ZM4.91379 12.3116V12.5616H4.9138L4.91379 12.3116ZM6.34835 13.0688L6.28055 13.3094L6.28055 13.3094L6.34835 13.0688ZM6.39501 13.0824L6.46767 12.8432L6.46766 12.8432L6.39501 13.0824ZM7.63923 13.7757L7.77467 13.5656L7.77467 13.5656L7.63923 13.7757ZM7.65693 13.7871L7.79236 13.577H7.79236L7.65693 13.7871ZM9.17472 14.7013L9.06452 14.9257H9.06452L9.17472 14.7013ZM10.4177 14.9955L10.4357 15.2449H10.4357L10.4177 14.9955ZM10.5301 14.9848L10.5005 14.7365H10.5005L10.5301 14.9848ZM11.6909 14.4597L11.8424 14.6586H11.8424L11.6909 14.4597ZM12.9941 13.2754L13.1678 13.4552L13.1708 13.4522L12.9941 13.2754ZM12.9941 13.2754L12.8203 13.0956L12.8173 13.0986L12.9941 13.2754ZM13.9647 12.3371L14.1452 12.1641L13.9714 11.9828L13.7909 12.1573L13.9647 12.3371ZM14.5011 12.7556L14.6177 12.5345L14.5011 12.7556ZM16.3096 13.001L16.3095 12.751H16.3095L16.3096 13.001ZM16.394 13.001V12.751H16.3939L16.394 13.001ZM14.812 12.1659L14.6954 12.3871L14.812 12.1659ZM14.3486 11.7692L14.5367 11.6045V11.6045L14.3486 11.7692ZM13.671 10.8923L13.8719 10.7435H13.8719L13.671 10.8923ZM12.1242 8.80263L11.9233 8.95137L12.1242 8.80263ZM11.6875 8.34558L11.5475 8.55271V8.55271L11.6875 8.34558ZM10.9187 8.23741L10.8416 7.99958L10.9187 8.23741ZM10.317 8.5917L10.161 8.39639L10.161 8.39639L10.317 8.5917ZM10.1064 8.76696L10.2681 8.95755L10.2682 8.9575L10.1064 8.76696ZM10.0746 8.79394L10.2362 8.98463L10.2364 8.98453L10.0746 8.79394ZM9.86722 8.96272L9.71715 8.76277L9.86722 8.96272ZM9.04396 8.86609L9.23087 8.70007V8.70007L9.04396 8.86609ZM9.04395 7.70313L8.85704 7.53711L9.04395 7.70313ZM10.0087 6.61703L10.1956 6.78305V6.78305L10.0087 6.61703ZM11.1103 5.74645L11.1765 5.98752V5.98752L11.1103 5.74645ZM12.513 5.69613L12.4977 5.94567L12.4977 5.94567L12.513 5.69613ZM12.5515 5.69849L12.5363 5.94802L12.5363 5.94803L12.5515 5.69849ZM13.5294 6.15728L13.707 5.98138V5.98138L13.5294 6.15728ZM14.0031 5.6882L14.1807 5.5123V5.5123L14.0031 5.6882ZM12.5922 5.03307L12.5767 5.28259L12.5769 5.2826L12.5922 5.03307ZM12.513 5.02816L12.4975 5.27768L12.4976 5.27768L12.513 5.02816ZM10.9337 5.1036L10.9999 5.34467V5.34467L10.9337 5.1036ZM10.0649 5.59649L9.89121 5.77635L10.0573 5.93672L10.2304 5.78386L10.0649 5.59649ZM9.96119 5.52859L10.0571 5.29771V5.29771L9.96119 5.52859ZM9.03222 5.14277L9.12811 4.91189L9.03222 5.14277ZM6.77507 5.7918L6.97004 5.94828V5.94828L6.77507 5.7918ZM8.87241 5.52757C8.25533 5.27128 7.56971 5.46738 7.10002 6.0526L7.48996 6.36556C7.83853 5.93125 8.29451 5.82896 8.68062 5.98932L8.87241 5.52757ZM9.6782 5.86223L8.87241 5.52757L8.68062 5.98932L9.48642 6.32399L9.6782 5.86223ZM9.73169 6.30143C9.74418 6.28735 9.75666 6.27328 9.76921 6.25916L9.39542 5.92707C9.38271 5.94137 9.37009 5.9556 9.35763 5.96965L9.73169 6.30143ZM9.69726 6.34023L9.73165 6.30147L9.35767 5.9696L9.32328 6.00836L9.69726 6.34023ZM8.73244 7.42642L9.69718 6.34032L9.32336 6.00827L8.35862 7.09437L8.73244 7.42642ZM8.73244 9.1428C8.31054 8.66783 8.31054 7.90139 8.73244 7.42642L8.35862 7.09437C7.76848 7.75874 7.76848 8.81048 8.35862 9.47485L8.73244 9.1428ZM10.1173 9.29597C9.68163 9.62298 9.10032 9.55696 8.73244 9.1428L8.35862 9.47485C8.89237 10.0757 9.76545 10.1852 10.4175 9.69587L10.1173 9.29597ZM10.344 9.11176C10.2677 9.17649 10.1915 9.24029 10.1173 9.29597L10.4175 9.69587C10.5049 9.63027 10.5912 9.55767 10.6674 9.49314L10.344 9.11176ZM10.3772 9.08356L10.3439 9.11184L10.6674 9.49306L10.7008 9.46477L10.3772 9.08356ZM10.5771 8.91721C10.5092 8.9715 10.443 9.02774 10.3772 9.0836L10.7008 9.46473C10.7677 9.40799 10.8281 9.35666 10.8892 9.30783L10.5771 8.91721ZM11.0471 8.6338C10.8924 8.68389 10.7356 8.79058 10.5771 8.91721L10.8892 9.30783C11.0401 9.18732 11.1377 9.13002 11.2012 9.10947L11.0471 8.6338ZM11.4542 8.6908C11.409 8.66027 11.3475 8.62606 11.2679 8.61307C11.1875 8.59993 11.1132 8.61237 11.0471 8.6338L11.2012 9.10947C11.2094 9.1068 11.2111 9.107 11.2079 9.10735C11.2041 9.10778 11.1967 9.10806 11.1873 9.10653C11.178 9.105 11.1712 9.10243 11.1681 9.101C11.1656 9.09988 11.1671 9.10027 11.1742 9.10507L11.4542 8.6908ZM11.7893 9.05053C11.6812 8.90445 11.5752 8.77255 11.4542 8.6908L11.1742 9.10507C11.2149 9.13254 11.2752 9.19642 11.3874 9.34801L11.7893 9.05053ZM13.3447 11.1518L11.7893 9.05053L11.3874 9.34801L12.9428 11.4493L13.3447 11.1518ZM13.7341 11.6721C13.617 11.5196 13.4894 11.3473 13.3447 11.1518L12.9428 11.4493C13.0868 11.6438 13.2172 11.8199 13.3376 11.9767L13.7341 11.6721ZM12.7198 12.961L13.7096 12.0041L13.3621 11.6447L12.3723 12.6015L12.7198 12.961ZM11.4384 14.1283C11.7864 13.8632 12.1835 13.4794 12.7198 12.961L12.3723 12.6015C11.8273 13.1284 11.4545 13.4875 11.1354 13.7306L11.4384 14.1283ZM10.4807 14.571C10.8018 14.5327 11.0922 14.392 11.4384 14.1283L11.1354 13.7306C10.8288 13.9642 10.6215 14.0506 10.4213 14.0746L10.4807 14.571ZM10.3878 14.5799C10.4188 14.5777 10.4498 14.5747 10.4807 14.571L10.4213 14.0746C10.3982 14.0773 10.3751 14.0795 10.3519 14.0812L10.3878 14.5799ZM9.35839 14.3273C9.75154 14.5203 10.0651 14.6032 10.3878 14.5799L10.3519 14.0812C10.1501 14.0958 9.92812 14.05 9.57879 13.8785L9.35839 14.3273ZM7.86495 13.4255C8.49593 13.8322 8.96332 14.1332 9.35839 14.3273L9.57879 13.8785C9.21593 13.7003 8.77687 13.4184 8.13582 13.0052L7.86495 13.4255ZM7.82116 13.3973L7.86494 13.4255L8.13583 13.0052L8.09205 12.977L7.82116 13.3973ZM6.5161 12.6837C6.8837 12.7954 7.21024 13.0035 7.82115 13.3973L8.09206 12.977C7.50018 12.5955 7.11005 12.3416 6.66141 12.2053L6.5161 12.6837ZM6.46135 12.6677C6.47965 12.6729 6.4979 12.6782 6.5161 12.6837L6.66141 12.2053C6.63999 12.1988 6.6185 12.1925 6.59694 12.1865L6.46135 12.6677ZM4.96631 12.5616C5.70068 12.5616 6.09154 12.5635 6.46134 12.6677L6.59694 12.1865C6.14638 12.0595 5.67777 12.0616 4.96627 12.0616L4.96631 12.5616ZM4.96629 12.5616H4.96629V12.0616H4.96629V12.5616ZM4.9138 12.5616L4.9663 12.5616L4.96628 12.0616L4.91377 12.0616L4.9138 12.5616ZM3.83333 12.5616H4.91379V12.0616H3.83333V12.5616ZM3.75 12.645C3.75 12.5989 3.78731 12.5616 3.83333 12.5616V12.0616C3.51117 12.0616 3.25 12.3228 3.25 12.645H3.75ZM3.83333 12.7283C3.78731 12.7283 3.75 12.691 3.75 12.645H3.25C3.25 12.9671 3.51117 13.2283 3.83333 13.2283V12.7283ZM4.91379 12.7283H3.83333V13.2283H4.91379V12.7283ZM6.41615 12.8281C6.06418 12.729 5.69076 12.7283 4.91379 12.7283V13.2283C5.71913 13.2283 6.01067 13.2334 6.28055 13.3094L6.41615 12.8281ZM6.46766 12.8432C6.45055 12.838 6.43338 12.833 6.41614 12.8281L6.28055 13.3094C6.29452 13.3133 6.30846 13.3174 6.32236 13.3216L6.46766 12.8432ZM7.77467 13.5656C7.12818 13.149 6.81728 12.9494 6.46767 12.8432L6.32236 13.3216C6.58959 13.4028 6.83358 13.5539 7.5038 13.9859L7.77467 13.5656ZM7.79236 13.577L7.77467 13.5656L7.5038 13.9859L7.5215 13.9973L7.79236 13.577ZM9.28492 14.4769C8.88307 14.2795 8.41142 13.976 7.79236 13.577L7.5215 13.9973C8.13119 14.3902 8.63064 14.7126 9.06452 14.9257L9.28492 14.4769ZM10.3998 14.7462C10.0367 14.7723 9.69266 14.6771 9.28492 14.4769L9.06452 14.9257C9.516 15.1474 9.95158 15.2798 10.4357 15.2449L10.3998 14.7462ZM10.5005 14.7365C10.467 14.7405 10.4334 14.7437 10.3998 14.7462L10.4357 15.2449C10.4772 15.2419 10.5185 15.2379 10.5598 15.233L10.5005 14.7365ZM11.5394 14.2609C11.1801 14.5346 10.8619 14.6933 10.5005 14.7365L10.5598 15.233C11.0422 15.1753 11.4436 14.9625 11.8424 14.6586L11.5394 14.2609ZM12.8203 13.0957C12.2944 13.6041 11.8935 13.9912 11.5394 14.2609L11.8424 14.6586C12.2252 14.367 12.65 13.9558 13.1678 13.4552L12.8203 13.0957ZM12.8173 13.0986L12.8173 13.0986L13.1708 13.4522L13.1709 13.4522L12.8173 13.0986ZM13.7909 12.1573L12.8203 13.0957L13.1678 13.4551L14.1384 12.5168L13.7909 12.1573ZM14.6177 12.5345C14.4485 12.4453 14.2997 12.3253 14.1452 12.1641L13.7842 12.5101C13.9647 12.6984 14.1554 12.856 14.3845 12.9768L14.6177 12.5345ZM16.3095 12.751C15.4752 12.7513 15.0179 12.7455 14.6177 12.5345L14.3845 12.9768C14.9168 13.2575 15.5147 13.2513 16.3097 13.251L16.3095 12.751ZM16.3939 12.751L16.3095 12.751L16.3096 13.251L16.3941 13.251L16.3939 12.751ZM17.166 12.751H16.394V13.251H17.166V12.751ZM17.2493 12.6677C17.2493 12.7137 17.212 12.751 17.166 12.751V13.251C17.4882 13.251 17.7493 12.9899 17.7493 12.6677H17.2493ZM17.166 12.5844C17.212 12.5844 17.2493 12.6217 17.2493 12.6677H17.7493C17.7493 12.3455 17.4882 12.0844 17.166 12.0844V12.5844ZM16.394 12.5844H17.166V12.0844H16.394V12.5844ZM14.6954 12.3871C14.8854 12.4872 15.0834 12.5349 15.3447 12.5589C15.5999 12.5824 15.9323 12.5844 16.394 12.5844V12.0844C15.9253 12.0844 15.618 12.0819 15.3904 12.061C15.169 12.0407 15.0412 12.0042 14.9286 11.9448L14.6954 12.3871ZM14.1606 11.934C14.3495 12.1495 14.5116 12.2901 14.6954 12.3871L14.9286 11.9448C14.819 11.887 14.7036 11.795 14.5367 11.6045L14.1606 11.934ZM13.4701 11.041C13.7579 11.4298 13.9708 11.7174 14.1606 11.934L14.5367 11.6045C14.3636 11.407 14.1647 11.139 13.8719 10.7435L13.4701 11.041ZM11.9233 8.95137L13.4701 11.041L13.8719 10.7435L12.3251 8.65389L11.9233 8.95137ZM11.5475 8.55271C11.695 8.65235 11.8159 8.80635 11.9233 8.95137L12.3251 8.65389C12.2201 8.51202 12.0543 8.29172 11.8275 8.13844L11.5475 8.55271ZM10.9957 8.47525C11.2136 8.40467 11.3947 8.44941 11.5475 8.55271L11.8275 8.13844C11.5632 7.95984 11.2235 7.87589 10.8416 7.99958L10.9957 8.47525ZM10.4731 8.78701C10.6344 8.6581 10.8109 8.53512 10.9957 8.47525L10.8416 7.99958C10.5662 8.08881 10.3309 8.2606 10.161 8.39639L10.4731 8.78701ZM10.2682 8.9575C10.3345 8.90117 10.4035 8.8426 10.4731 8.78701L10.161 8.39639C10.0846 8.45741 10.01 8.52081 9.94451 8.57641L10.2682 8.9575ZM10.2364 8.98453L10.2681 8.95755L9.94457 8.57636L9.91278 8.60334L10.2364 8.98453ZM10.0173 9.16267C10.0871 9.11031 10.1598 9.04945 10.2362 8.98463L9.9129 8.60325C9.83607 8.66838 9.77365 8.72037 9.71715 8.76277L10.0173 9.16267ZM8.85704 9.03212C9.16974 9.38415 9.65381 9.43547 10.0173 9.16267L9.71715 8.76277C9.56834 8.87446 9.3763 8.86379 9.23087 8.70007L8.85704 9.03212ZM8.85704 7.53711C8.49123 7.94894 8.49123 8.62028 8.85704 9.03212L9.23087 8.70007C9.03329 8.47763 9.03329 8.09159 9.23087 7.86916L8.85704 7.53711ZM9.82179 6.451L8.85704 7.53711L9.23087 7.86916L10.1956 6.78305L9.82179 6.451ZM11.0441 5.50539C10.5364 5.64485 10.1984 6.02705 9.82179 6.451L10.1956 6.78305C10.5947 6.33379 10.837 6.08079 11.1765 5.98752L11.0441 5.50539ZM12.5283 5.4466C12.04 5.41668 11.498 5.38069 11.0441 5.50539L11.1765 5.98752C11.5338 5.88937 11.9842 5.9142 12.4977 5.94567L12.5283 5.4466ZM12.5668 5.44896L12.5283 5.4466L12.4977 5.94567L12.5363 5.94802L12.5668 5.44896ZM13.707 5.98138C13.3904 5.66158 12.9879 5.47469 12.5668 5.44896L12.5363 5.94803C12.8273 5.96581 13.1162 6.09531 13.3517 6.33319L13.707 5.98138ZM15.4881 6.90692C14.7423 6.90692 14.2197 6.49917 13.707 5.98138L13.3517 6.33319C13.8825 6.8692 14.53 7.40692 15.4881 7.40692V6.90692ZM17.166 6.90692H15.4881V7.40692H17.166V6.90692ZM17.2493 6.82358C17.2493 6.86961 17.212 6.90692 17.166 6.90692V7.40692C17.4882 7.40692 17.7493 7.14575 17.7493 6.82358H17.2493ZM17.166 6.74025C17.212 6.74025 17.2493 6.77756 17.2493 6.82358H17.7493C17.7493 6.50142 17.4882 6.24025 17.166 6.24025V6.74025ZM15.4881 6.74025H17.166V6.24025H15.4881V6.74025ZM13.8255 5.86411C14.3322 6.37582 14.813 6.74025 15.4881 6.74025V6.24025C15.0252 6.24025 14.6694 6.00574 14.1807 5.5123L13.8255 5.86411ZM12.5769 5.2826C13.0415 5.31098 13.4818 5.51703 13.8255 5.86411L14.1807 5.5123C13.7561 5.08342 13.2022 4.81987 12.6074 4.78353L12.5769 5.2826ZM12.4976 5.27768L12.5767 5.28259L12.6076 4.78354L12.5285 4.77864L12.4976 5.27768ZM10.9999 5.34467C11.4687 5.21589 12.0227 5.24806 12.4975 5.27768L12.5286 4.77865C12.071 4.7501 11.4308 4.70778 10.8675 4.86253L10.9999 5.34467ZM10.2304 5.78386C10.4532 5.58704 10.7009 5.42682 10.9999 5.34467L10.8675 4.86253C10.4727 4.97099 10.159 5.17975 9.89934 5.40913L10.2304 5.78386ZM9.8653 5.75947C9.87564 5.76377 9.88419 5.76957 9.89121 5.77635L10.2385 5.41664C10.1872 5.36712 10.1261 5.32638 10.0571 5.29771L9.8653 5.75947ZM8.93633 5.37365L9.8653 5.75947L10.0571 5.29771L9.12811 4.91189L8.93633 5.37365ZM6.97004 5.94828C7.47963 5.31335 8.24164 5.08512 8.93633 5.37365L9.12811 4.91189C8.20039 4.52658 7.20926 4.8514 6.5801 5.63532L6.97004 5.94828ZM5.74335 6.58375C6.19887 6.58375 6.64082 6.35848 6.97004 5.94828L6.5801 5.63532C6.33214 5.94428 6.02672 6.08375 5.74335 6.08375V6.58375ZM3.83333 6.58375H5.74335V6.08375H3.83333V6.58375ZM3.75 6.66708C3.75 6.62105 3.78731 6.58375 3.83333 6.58375V6.08375C3.51117 6.08375 3.25 6.34491 3.25 6.66708H3.75ZM3.83333 6.75041C3.78731 6.75041 3.75 6.7131 3.75 6.66708H3.25C3.25 6.98924 3.51117 7.25041 3.83333 7.25041V6.75041ZM5.74335 6.75041H3.83333V7.25041H5.74335V6.75041ZM7.10002 6.0526C6.74386 6.49637 6.25645 6.75041 5.74335 6.75041V7.25041C6.42926 7.25041 7.05301 6.91 7.48996 6.36556L7.10002 6.0526Z" fill="white"/>
</svg>
