<svg width="21" height="21" viewBox="0 0 21 21" fill="none" xmlns="http://www.w3.org/2000/svg">
<path d="M17.3763 6.69534L10.5951 3.42165C10.535 3.39265 10.465 3.39265 10.4049 3.42165L3.62365 6.69534C3.54804 6.73184 3.5 6.80841 3.5 6.89236V14.8428C3.5 14.9267 3.54804 15.0033 3.62365 15.0398L10.4049 18.3135C10.4349 18.328 10.4675 18.3352 10.5 18.3352C10.5325 18.3352 10.5651 18.328 10.5951 18.3135L17.3763 15.0398C17.452 15.0033 17.5 14.9267 17.5 14.8428V6.89239C17.5 6.80838 17.4519 6.73187 17.3763 6.69534ZM10.5 3.86163L16.778 6.89236L14.9581 7.77092C14.9466 7.76214 14.9345 7.75403 14.9211 7.74758L8.68574 4.73747L10.5 3.86163ZM8.19165 4.98484L14.4605 8.01117L13.1766 8.63101L6.9103 5.60591L8.19165 4.98484ZM14.6072 8.42621V10.7174L13.4079 11.2964V9.00519L14.6072 8.42621ZM17.0624 14.7055L10.7188 17.7679V10.3034L12.2319 9.57287C12.3407 9.52034 12.3864 9.38957 12.3338 9.28073C12.2813 9.17195 12.1505 9.12627 12.0417 9.17884L10.5 9.92312L9.89337 9.63025C9.78453 9.57766 9.65376 9.62334 9.60123 9.73214C9.54869 9.84095 9.59431 9.97175 9.70312 10.0243L10.2812 10.3034V17.7679L3.93756 14.7054V7.24092L8.7682 9.57296C8.79886 9.58778 8.83127 9.59478 8.86315 9.59478C8.94448 9.59478 9.0226 9.54922 9.06032 9.47107C9.11285 9.36226 9.06723 9.23146 8.95842 9.17893L4.222 6.89236L6.39535 5.84316L12.9673 9.01583C12.9683 9.01717 12.9693 9.01837 12.9703 9.01968V11.645C12.9703 11.7203 13.009 11.7903 13.0728 11.8303C13.1082 11.8526 13.1486 11.8638 13.1891 11.8638C13.2216 11.8638 13.2541 11.8566 13.2842 11.842L14.9211 11.0518C14.9967 11.0153 15.0447 10.9388 15.0447 10.8548V8.21501L17.0624 7.24095V14.7055Z" fill="white" stroke="white" stroke-width="0.5"/>
</svg>
