<svg width="11" height="10" viewBox="0 0 11 10" fill="none" xmlns="http://www.w3.org/2000/svg">
<path d="M10.7451 4.36842C10.9125 4.22193 10.9764 3.99057 10.9077 3.77888C10.8394 3.56758 10.652 3.41751 10.4303 3.39753L10.7451 4.36842ZM10.7451 4.36842L8.46849 6.36458L10.7451 4.36842ZM10.4319 3.93269L10.4321 3.93323C10.439 3.95452 10.4329 3.97721 10.4158 3.99212L10.4154 3.99248L8.13885 5.98864L7.91498 6.18493L7.98089 6.47528L8.65214 9.43211C8.65215 9.43216 8.65216 9.43222 8.65218 9.43228C8.65715 9.45454 8.64869 9.47638 8.6307 9.48942L8.63066 9.48945C8.61255 9.50258 8.58995 9.50306 8.57227 9.49242L8.57109 9.49172L5.97408 7.939L5.71755 7.78563L5.46099 7.93896L2.86303 9.49168L2.86281 9.49181C2.8524 9.49804 2.84325 9.5 2.83524 9.5C2.82544 9.5 2.81455 9.49716 2.80323 9.48898C2.7861 9.47655 2.77725 9.45513 2.78242 9.43201C2.78243 9.43196 2.78244 9.43192 2.78245 9.43187L3.45364 6.47528L3.51954 6.18496L3.29572 5.98867L1.01916 3.99211L1.01821 3.99128C1.0025 3.97757 0.995736 3.95522 1.0028 3.9335C1.0098 3.91196 1.02797 3.89753 1.05014 3.89542C1.0502 3.89542 1.05025 3.89541 1.0503 3.89541L4.06176 3.62201L4.35904 3.59502L4.47633 3.32053L5.66702 0.534074C5.66705 0.534003 5.66708 0.533933 5.66711 0.533862C5.67652 0.512151 5.69628 0.5 5.7175 0.5C5.73891 0.5 5.75874 0.51235 5.76805 0.533739C5.76808 0.533821 5.76812 0.533903 5.76815 0.533985L6.95866 3.3205L7.07595 3.59501L7.37324 3.62201L10.385 3.89548L10.3854 3.89551C10.4072 3.89748 10.4252 3.91187 10.4319 3.93269Z" fill="url(#paint0_linear_1_5670)" stroke="#FFB849"/>
<defs>
<linearGradient id="paint0_linear_1_5670" x1="0.565075" y1="5" x2="10.8699" y2="5" gradientUnits="userSpaceOnUse">
<!-- <stop offset="0.4" stop-color="#FFB849"/> -->
<stop offset="0.4" stop-color="#997404" stop-opacity="0"/>
</linearGradient>
</defs>
</svg>
