<svg width="17" height="16" viewBox="0 0 17 16" fill="none" xmlns="http://www.w3.org/2000/svg">
<path d="M13.9077 6.77888C13.8394 6.56758 13.652 6.41751 13.4303 6.39753L10.4185 6.12405L9.22751 3.33653C9.1397 3.13224 8.93971 3 8.7175 3C8.4953 3 8.29531 3.13224 8.2075 3.33701L7.01655 6.12405L4.00427 6.39753C3.78295 6.41799 3.59601 6.56758 3.52731 6.77888C3.4586 6.99018 3.52205 7.22193 3.68948 7.36802L5.96604 9.36458L5.29474 12.3217C5.24562 12.5391 5.33001 12.7639 5.51041 12.8943C5.60738 12.9643 5.72083 13 5.83524 13C5.93388 13 6.03173 12.9734 6.11954 12.9209L8.7175 11.3682L11.3145 12.9209C11.5046 13.0352 11.7441 13.0248 11.9241 12.8943C12.1046 12.7635 12.1889 12.5386 12.1398 12.3217L11.4685 9.36458L13.7451 7.36842C13.9125 7.22193 13.9764 6.99057 13.9077 6.77888Z" fill="#FFB849"/>
</svg>
