<svg width="20" height="20" viewBox="0 0 20 20" fill="none" xmlns="http://www.w3.org/2000/svg">
<path d="M16.5 9.5C16.5 9.22386 16.2761 9 16 9C15.7239 9 15.5 9.22386 15.5 9.5H16.5ZM4.5 9.5C4.5 9.22386 4.27614 9 4 9C3.72386 9 3.5 9.22386 3.5 9.5H4.5ZM5.63803 15.173L5.86502 14.7275H5.86502L5.63803 15.173ZM4.32698 13.862L3.88148 14.089H3.88148L4.32698 13.862ZM15.673 13.862L15.2275 13.635L15.673 13.862ZM14.362 15.173L14.589 15.6185L14.362 15.173ZM9.5 12C9.5 12.2761 9.72386 12.5 10 12.5C10.2761 12.5 10.5 12.2761 10.5 12H9.5ZM10 4.5L10.3536 4.14645C10.1583 3.95118 9.84171 3.95118 9.64645 4.14645L10 4.5ZM11.6464 6.85355C11.8417 7.04882 12.1583 7.04882 12.3536 6.85355C12.5488 6.65829 12.5488 6.34171 12.3536 6.14645L11.6464 6.85355ZM7.64645 6.14645C7.45118 6.34171 7.45118 6.65829 7.64645 6.85355C7.84171 7.04882 8.15829 7.04882 8.35355 6.85355L7.64645 6.14645ZM15.5 9.5V10.7H16.5V9.5H15.5ZM11.2 15H8.8V16H11.2V15ZM4.5 10.7V9.5H3.5V10.7H4.5ZM8.8 15C7.95167 15 7.34549 14.9996 6.87032 14.9608C6.40099 14.9224 6.10366 14.8491 5.86502 14.7275L5.41103 15.6185C5.81413 15.8239 6.25771 15.9141 6.78889 15.9575C7.31423 16.0004 7.96817 16 8.8 16V15ZM3.5 10.7C3.5 11.5318 3.49961 12.1858 3.54253 12.7111C3.58593 13.2423 3.67609 13.6859 3.88148 14.089L4.77248 13.635C4.65089 13.3963 4.57756 13.099 4.53921 12.6297C4.50039 12.1545 4.5 11.5483 4.5 10.7H3.5ZM5.86502 14.7275C5.39462 14.4878 5.01217 14.1054 4.77248 13.635L3.88148 14.089C4.21703 14.7475 4.75247 15.283 5.41103 15.6185L5.86502 14.7275ZM15.5 10.7C15.5 11.5483 15.4996 12.1545 15.4608 12.6297C15.4224 13.099 15.3491 13.3963 15.2275 13.635L16.1185 14.089C16.3239 13.6859 16.4141 13.2423 16.4575 12.7111C16.5004 12.1858 16.5 11.5318 16.5 10.7H15.5ZM11.2 16C12.0318 16 12.6858 16.0004 13.2111 15.9575C13.7423 15.9141 14.1859 15.8239 14.589 15.6185L14.135 14.7275C13.8963 14.8491 13.599 14.9224 13.1297 14.9608C12.6545 14.9996 12.0483 15 11.2 15V16ZM15.2275 13.635C14.9878 14.1054 14.6054 14.4878 14.135 14.7275L14.589 15.6185C15.2475 15.283 15.783 14.7475 16.1185 14.089L15.2275 13.635ZM10.5 12V4.5H9.5V12H10.5ZM9.64645 4.85355L11.6464 6.85355L12.3536 6.14645L10.3536 4.14645L9.64645 4.85355ZM9.64645 4.14645L7.64645 6.14645L8.35355 6.85355L10.3536 4.85355L9.64645 4.14645Z" fill="#0D062D"/>
</svg>
