<svg width="21" height="20" viewBox="0 0 21 20" fill="none" xmlns="http://www.w3.org/2000/svg">
<path fill-rule="evenodd" clip-rule="evenodd" d="M10.5 5C8.92248 5 7.625 6.31034 7.625 7.95C7.625 9.58966 8.92248 10.9 10.5 10.9C12.0775 10.9 13.375 9.58966 13.375 7.95C13.375 6.31034 12.0775 5 10.5 5ZM8.21546 11.1412C7.24949 10.4209 6.625 9.25647 6.625 7.95C6.625 5.77889 8.34959 4 10.5 4C12.6504 4 14.375 5.77889 14.375 7.95C14.375 9.27349 13.7341 10.4512 12.7466 11.1691C13.7397 11.4271 14.4158 11.8693 14.8498 12.502C15.1924 13.0013 15.3497 13.5738 15.4255 14.1593C15.5 14.7339 15.5 15.3598 15.5 15.9805V16C15.5 16.2761 15.2761 16.5 15 16.5C14.7239 16.5 14.5 16.2761 14.5 16C14.5 15.3568 14.4992 14.7922 14.4338 14.2878C14.3691 13.7883 14.2451 13.3882 14.0252 13.0677C13.6042 12.4539 12.6954 11.9497 10.4945 11.9C8.29927 11.9009 7.39606 12.4068 6.97678 13.0273C6.75589 13.3542 6.63127 13.7642 6.56628 14.2728C6.50077 14.7856 6.5 15.3571 6.5 16C6.5 16.2761 6.27614 16.5 6 16.5C5.72386 16.5 5.5 16.2761 5.5 16L5.5 15.9811C5.49999 15.3598 5.49998 14.7281 5.57434 14.1461C5.64998 13.5541 5.80661 12.9729 6.14822 12.4674C6.57706 11.8327 7.24255 11.3904 8.21546 11.1412Z" fill="white" stroke="white" stroke-width="0.5"/>
</svg>
